# xmcd
#
# Track frame offsets: 
#        150
#        4770
#        15130
#        28398
#        41650
#        72868
#        87785
#        101685
#        115913
#        131135
#        159718
#        179773
#        202398
#        217373
#        241450
#        260590
#        270335
#        283310
#        299948
#
# Disc length: 4282 seconds
#
# Revision: 0
# Processed by: cddbd v1.5.1PL2 Copyright (c) Steve Scherf et al.
# Submitted via: ExactAudioCopy v0.95b3
#
DISCID=3510b813
DTITLE=Eric Clapton - Rare Live and Unreleased
DYEAR=1994
DGENRE=Blues
TTITLE0=Falstaff Beer
TTITLE1=I Want To Know
TTITLE2=I Feel Free
TTITLE3=Strange Brew
TTITLE4=Sunshine of Your Love
TTITLE5=Outside Woman Blues
TTITLE6=Tales of Brave Ulysses
TTITLE7=Born Under a Bad Sign
TTITLE8=Change of Address
TTITLE9=Little Wing
TTITLE10=Evil
TTITLE11=Have You Ever Loved a Woman
TTITLE12=After Midnight
TTITLE13=I Shot the Sheriff
TTITLE14=Cocaine
TTITLE15=Knockin' on Heavens Door
TTITLE16=Sugar Sweet
TTITLE17=Rockin' Daddy
TTITLE18=Why Does Got To Be So Sad
EXTD=
EXTT0=
EXTT1=
EXTT2=
EXTT3=
EXTT4=
EXTT5=
EXTT6=
EXTT7=
EXTT8=
EXTT9=
EXTT10=
EXTT11=
EXTT12=
EXTT13=
EXTT14=
EXTT15=
EXTT16=
EXTT17=
EXTT18=
PLAYORDER=
